# xmcd
#
# Track frame offsets:
#	150
#	17056
#	32891
#	49959
#	63266
#	75528
#	87492
#	98538
#	113004
#	129543
#	139634
#	154239
#	168761
#	179771
#	195057
#
# Disc length: 2770 seconds
#
# Revision: 1
# Processed by: cddbd v1.5.1PL0 Copyright (c) Steve Scherf et al.
# Submitted via: audiograbber 1.83.01
#
DISCID=ba0ad00f
DTITLE=Vera Martinova - Kytarova
DYEAR=2004
DGENRE=
TTITLE0=Dam si jedno blues
TTITLE1=Toulavy dziny
TTITLE2=Naruc planejch ruzi
TTITLE3=Ja vim ze uz me nemilujes
TTITLE4=Dala jsem lasku rekam
TTITLE5=Blanicky rytir
TTITLE6=Studanka
TTITLE7=Cekani
TTITLE8=Ja se stavam vodou
TTITLE9=Laska
TTITLE10=Az na vrcholky hor
TTITLE11=My blues
TTITLE12=Svou karu tlacime kazdy sam
TTITLE13=Placou tvoje modre oci
TTITLE14=Jsou chvile
EXTD=
EXTT0=
EXTT1=
EXTT2=
EXTT3=
EXTT4=
EXTT5=
EXTT6=
EXTT7=
EXTT8=
EXTT9=
EXTT10=
EXTT11=
EXTT12=
EXTT13=
EXTT14=
PLAYORDER=
